<?xml version="1.0" encoding="utf-8"?>
<!-- Generator: Adobe Illustrator 24.0.1, SVG Export Plug-In . SVG Version: 6.00 Build 0)  -->
<svg version="1.1" id="Layer_1" xmlns="http://www.w3.org/2000/svg" xmlns:xlink="http://www.w3.org/1999/xlink" x="0px" y="0px"
	 viewBox="0 0 500.82 167.23" style="enable-background:new 0 0 500.82 167.23;" xml:space="preserve">
<style type="text/css">
	.st0{fill:#010101;}
	.st1{fill-rule:evenodd;clip-rule:evenodd;fill:#ED2024;}
</style>
<polygon class="st0" points="47.48,51.36 97.56,0.29 80.53,0.29 46.6,35.56 0.25,80.42 0.25,117.13 13.43,117.13 13.43,85.75 
	38.3,60.54 83.2,117.13 99.73,117.13 47.48,51.36 "/>
<path class="st0" d="M223.24,0.29h-13.19v67.93c0,12.8-3.17,22.42-9.51,28.88c-6.34,6.45-14.91,9.68-25.7,9.68
	c-11.24,0-20-3.39-26.29-10.18c-6.29-6.79-9.43-16.52-9.43-29.21V0.29h-13.18v67.93c0,8.23,1.17,15.52,3.51,21.86
	c2.34,6.34,5.65,11.66,9.93,15.94c4.29,4.28,9.4,7.51,15.36,9.68c5.95,2.17,12.55,3.26,19.78,3.26c7.34,0,13.99-1.08,19.94-3.26
	c5.95-2.17,11.07-5.42,15.36-9.76c4.28-4.34,7.59-9.74,9.93-16.19c2.34-6.46,3.51-13.97,3.51-22.53V0.29L223.24,0.29z"/>
<polygon class="st0" points="345.09,64.55 345.09,117.13 358.27,117.13 358.27,0.29 345.09,0.29 345.09,52.2 277.65,52.2 
	277.65,0.29 264.47,0.29 264.47,117.13 277.65,117.13 277.65,64.55 345.09,64.55 "/>
<polygon class="st0" points="487.3,93.92 413.69,0.29 401.34,0.29 401.34,117.13 414.19,117.13 414.19,21.32 489.63,117.13 
	500.15,117.13 500.15,0.29 487.3,0.29 487.3,93.92 "/>
<polygon class="st1" points="0.25,0.29 13.43,0.29 13.43,17.22 0.25,17.22 0.25,0.29 "/>
<path class="st0" d="M111.66,165.89h15.78v-2.44h-13.15v-20.92h-2.64V165.89L111.66,165.89z M152.53,142.37h-2.47l-10.64,23.52h2.7
	l2.77-6.17h12.71l2.74,6.17h2.84L152.53,142.37L152.53,142.37z M156.57,157.38h-10.64l5.34-11.91L156.57,157.38L156.57,157.38z
	 M181.63,161.99l-6.67-19.45h-2.87l8.34,23.52h2.2l6.44-18.95l6.41,18.95h2.23l8.34-23.52h-2.77l-6.67,19.45l-6.41-19.52h-2.17
	L181.63,161.99L181.63,161.99z M251.06,162.73v-9.29h-9.64v2.34h7.11v5.83c-0.8,0.65-1.79,1.2-2.97,1.66
	c-1.18,0.46-2.43,0.69-3.77,0.69c-1.42,0-2.7-0.25-3.84-0.74c-1.14-0.49-2.1-1.17-2.9-2.04c-0.8-0.87-1.42-1.9-1.85-3.09
	c-0.43-1.19-0.65-2.49-0.65-3.89c0-1.31,0.22-2.56,0.67-3.72c0.44-1.17,1.06-2.19,1.84-3.06c0.78-0.87,1.71-1.56,2.8-2.07
	c1.09-0.51,2.28-0.77,3.57-0.77c0.82,0,1.57,0.07,2.25,0.2c0.68,0.13,1.3,0.32,1.87,0.55c0.57,0.23,1.1,0.51,1.59,0.83
	c0.49,0.32,0.96,0.68,1.4,1.08l1.7-2c-0.58-0.49-1.17-0.93-1.79-1.32c-0.61-0.39-1.27-0.72-1.97-0.98c-0.7-0.27-1.46-0.47-2.27-0.6
	c-0.81-0.13-1.71-0.2-2.69-0.2c-1.76,0-3.35,0.33-4.79,0.98c-1.44,0.66-2.67,1.54-3.69,2.65c-1.02,1.11-1.82,2.4-2.39,3.87
	c-0.57,1.47-0.85,3-0.85,4.6c0,1.67,0.27,3.24,0.82,4.71c0.54,1.47,1.33,2.75,2.37,3.84c1.03,1.09,2.28,1.95,3.74,2.57
	c1.46,0.63,3.11,0.94,4.95,0.94c1.98,0,3.76-0.35,5.35-1.05C248.63,164.55,249.97,163.71,251.06,162.73L251.06,162.73z
	 M285.43,165.89l-7.18-9.54c0.91-0.16,1.76-0.42,2.54-0.8c0.78-0.38,1.45-0.85,2.02-1.42c0.57-0.57,1.01-1.23,1.32-2
	c0.31-0.77,0.47-1.64,0.47-2.62c0-1.05-0.2-2-0.6-2.86c-0.4-0.86-0.97-1.59-1.7-2.2c-0.73-0.61-1.62-1.08-2.65-1.42
	c-1.03-0.33-2.2-0.5-3.49-0.5h-10.04v23.36h2.64v-9.08h6.67l6.77,9.08H285.43L285.43,165.89z M281.96,149.63
	c0,0.76-0.15,1.44-0.45,2.04c-0.3,0.61-0.72,1.11-1.26,1.53c-0.53,0.41-1.17,0.73-1.91,0.96c-0.73,0.22-1.54,0.33-2.41,0.33h-7.19
	v-9.51h7.22c1.9,0,3.37,0.41,4.42,1.22C281.44,147.01,281.96,148.15,281.96,149.63L281.96,149.63z M322.13,154.18
	c0-1.62-0.28-3.16-0.85-4.62c-0.57-1.46-1.37-2.74-2.42-3.84c-1.05-1.1-2.3-1.97-3.75-2.62c-1.46-0.64-3.08-0.97-4.86-0.97
	c-1.78,0-3.4,0.33-4.87,0.98c-1.47,0.66-2.72,1.54-3.77,2.65c-1.04,1.11-1.86,2.4-2.44,3.85c-0.58,1.46-0.87,3-0.87,4.62
	c0,1.62,0.28,3.16,0.85,4.62c0.57,1.46,1.37,2.73,2.42,3.84c1.04,1.1,2.3,1.97,3.75,2.62c1.46,0.65,3.08,0.97,4.86,0.97
	c1.78,0,3.4-0.33,4.87-0.99c1.47-0.66,2.72-1.54,3.77-2.65c1.04-1.11,1.86-2.4,2.44-3.85C321.84,157.34,322.13,155.81,322.13,154.18
	L322.13,154.18z M319.4,154.25c0,1.33-0.23,2.59-0.68,3.75c-0.46,1.17-1.08,2.19-1.89,3.05c-0.8,0.87-1.76,1.55-2.88,2.05
	c-1.12,0.5-2.35,0.75-3.69,0.75c-1.33,0-2.56-0.26-3.69-0.77c-1.12-0.51-2.09-1.2-2.92-2.07c-0.82-0.87-1.46-1.89-1.92-3.07
	c-0.45-1.18-0.68-2.43-0.68-3.77c0-1.33,0.23-2.58,0.68-3.75c0.46-1.17,1.09-2.19,1.89-3.05c0.8-0.87,1.76-1.55,2.89-2.05
	c1.12-0.5,2.35-0.75,3.69-0.75c1.33,0,2.56,0.26,3.69,0.77c1.12,0.51,2.09,1.2,2.92,2.07c0.82,0.87,1.46,1.89,1.92,3.07
	C319.17,151.66,319.4,152.91,319.4,154.25L319.4,154.25z M355.9,142.54h-2.64v13.58c0,2.56-0.63,4.48-1.9,5.77
	c-1.27,1.29-2.98,1.94-5.14,1.94c-2.25,0-4-0.68-5.26-2.04c-1.26-1.36-1.89-3.3-1.89-5.84v-13.41h-2.63v13.58
	c0,1.65,0.23,3.1,0.7,4.37c0.47,1.27,1.13,2.33,1.98,3.19c0.86,0.86,1.88,1.5,3.07,1.93c1.19,0.43,2.51,0.65,3.95,0.65
	c1.47,0,2.8-0.22,3.99-0.65c1.19-0.43,2.21-1.08,3.07-1.95c0.86-0.87,1.52-1.95,1.98-3.24c0.47-1.29,0.7-2.79,0.7-4.5V142.54
	L355.9,142.54z M388.73,149.98c0-1.16-0.2-2.2-0.62-3.12c-0.41-0.92-1-1.7-1.77-2.33c-0.77-0.63-1.69-1.12-2.77-1.47
	c-1.08-0.34-2.27-0.52-3.59-0.52h-8.74v23.36h2.64v-8.24h5.67c1.24,0,2.42-0.16,3.54-0.48c1.11-0.32,2.08-0.81,2.92-1.45
	c0.84-0.65,1.5-1.45,1.99-2.4C388.49,152.36,388.73,151.24,388.73,149.98L388.73,149.98z M386.1,150.08c0,0.78-0.15,1.49-0.45,2.12
	c-0.3,0.63-0.74,1.18-1.31,1.63c-0.57,0.46-1.24,0.81-2.04,1.05c-0.79,0.24-1.67,0.37-2.62,0.37h-5.79v-10.28h5.92
	c1.9,0,3.42,0.43,4.57,1.28C385.53,147.11,386.1,148.38,386.1,150.08L386.1,150.08z"/>
</svg>
