<?xml version="1.0" encoding="utf-8"?>
<!-- Generator: Adobe Illustrator 24.0.1, SVG Export Plug-In . SVG Version: 6.00 Build 0)  -->
<svg version="1.1" id="Layer_1" xmlns="http://www.w3.org/2000/svg" xmlns:xlink="http://www.w3.org/1999/xlink" x="0px" y="0px"
	 viewBox="0 0 216.19 73.35" style="enable-background:new 0 0 216.19 73.35;" xml:space="preserve">
<style type="text/css">
	.st0{fill:#FFFFFF;}
	.st1{fill-rule:evenodd;clip-rule:evenodd;fill:#ED2024;}
</style>
<polygon class="st0" points="20.7,22.95 42.21,1.01 34.89,1.01 20.32,16.17 0.41,35.43 0.41,51.2 6.08,51.2 6.08,37.72 16.76,26.89 
	36.04,51.2 43.14,51.2 20.7,22.95 "/>
<path class="st0" d="M96.19,1.01h-5.66v29.18c0,5.5-1.36,9.63-4.09,12.4c-2.72,2.77-6.4,4.16-11.04,4.16
	c-4.83,0-8.59-1.46-11.29-4.37c-2.7-2.92-4.05-7.1-4.05-12.55V1.01h-5.66v29.18c0,3.54,0.5,6.67,1.51,9.39
	c1,2.72,2.42,5.01,4.27,6.85c1.84,1.84,4.04,3.23,6.6,4.16c2.56,0.93,5.39,1.4,8.5,1.4c3.15,0,6.01-0.47,8.57-1.4
	c2.56-0.93,4.76-2.33,6.6-4.19c1.84-1.86,3.26-4.18,4.27-6.95c1-2.77,1.51-6,1.51-9.68V1.01L96.19,1.01z"/>
<polygon class="st0" points="148.52,28.61 148.52,51.2 154.18,51.2 154.18,1.01 148.52,1.01 148.52,23.31 119.56,23.31 119.56,1.01 
	113.89,1.01 113.89,51.2 119.56,51.2 119.56,28.61 148.52,28.61 "/>
<polygon class="st0" points="209.59,41.23 177.98,1.01 172.67,1.01 172.67,51.2 178.19,51.2 178.19,10.05 210.6,51.2 215.11,51.2 
	215.11,1.01 209.59,1.01 209.59,41.23 "/>
<polygon class="st1" points="0.41,1.01 6.08,1.01 6.08,8.29 0.41,8.29 0.41,1.01 "/>
<path class="st0" d="M48.26,72.14h6.78v-1.05h-5.65v-8.98h-1.13V72.14L48.26,72.14z M65.82,62.04h-1.06l-4.57,10.1h1.16l1.19-2.65
	H68l1.18,2.65h1.22L65.82,62.04L65.82,62.04z M67.55,68.49h-4.57l2.29-5.12L67.55,68.49L67.55,68.49z M78.31,70.46l-2.87-8.35h-1.23
	l3.58,10.1h0.95l2.77-8.14l2.75,8.14h0.96l3.58-10.1h-1.19l-2.87,8.35L82,62.08h-0.93L78.31,70.46L78.31,70.46z M108.13,70.78v-3.99
	h-4.14v1h3.05v2.5c-0.34,0.28-0.77,0.52-1.28,0.71c-0.51,0.2-1.05,0.3-1.62,0.3c-0.61,0-1.16-0.11-1.65-0.32
	c-0.49-0.21-0.9-0.5-1.25-0.88c-0.34-0.37-0.61-0.81-0.8-1.33c-0.19-0.51-0.28-1.07-0.28-1.67c0-0.56,0.1-1.1,0.29-1.6
	c0.19-0.5,0.45-0.94,0.79-1.31c0.33-0.37,0.74-0.67,1.2-0.89c0.47-0.22,0.98-0.33,1.53-0.33c0.35,0,0.68,0.03,0.97,0.09
	c0.29,0.06,0.56,0.14,0.8,0.24c0.24,0.1,0.47,0.22,0.68,0.36c0.21,0.14,0.41,0.29,0.6,0.47l0.73-0.86c-0.25-0.21-0.5-0.4-0.77-0.57
	c-0.26-0.17-0.54-0.31-0.85-0.42c-0.3-0.11-0.63-0.2-0.97-0.26c-0.35-0.06-0.73-0.09-1.15-0.09c-0.76,0-1.44,0.14-2.06,0.42
	c-0.62,0.28-1.14,0.66-1.58,1.14c-0.44,0.48-0.78,1.03-1.03,1.66c-0.24,0.63-0.36,1.29-0.36,1.98c0,0.72,0.12,1.39,0.35,2.02
	c0.23,0.63,0.57,1.18,1.02,1.65c0.44,0.47,0.98,0.84,1.61,1.1c0.63,0.27,1.34,0.4,2.13,0.4c0.85,0,1.62-0.15,2.3-0.45
	C107.09,71.56,107.67,71.2,108.13,70.78L108.13,70.78z M122.9,72.14l-3.08-4.1c0.39-0.07,0.76-0.18,1.09-0.34
	c0.33-0.16,0.62-0.36,0.87-0.61c0.24-0.24,0.43-0.53,0.57-0.86c0.13-0.33,0.2-0.7,0.2-1.12c0-0.45-0.09-0.86-0.26-1.23
	c-0.17-0.37-0.42-0.68-0.73-0.95c-0.31-0.26-0.69-0.47-1.14-0.61c-0.44-0.14-0.94-0.21-1.5-0.21h-4.31v10.03h1.13v-3.9h2.87
	l2.91,3.9H122.9L122.9,72.14z M121.41,65.15c0,0.32-0.06,0.62-0.19,0.88c-0.13,0.26-0.31,0.48-0.54,0.66
	c-0.23,0.18-0.5,0.31-0.82,0.41c-0.31,0.1-0.66,0.14-1.03,0.14h-3.09v-4.08h3.1c0.81,0,1.45,0.17,1.9,0.53
	C121.18,64.03,121.41,64.52,121.41,65.15L121.41,65.15z M138.66,67.11c0-0.7-0.12-1.36-0.37-1.98c-0.24-0.63-0.59-1.18-1.04-1.65
	c-0.45-0.47-0.99-0.85-1.61-1.13c-0.63-0.28-1.32-0.42-2.09-0.42c-0.76,0-1.46,0.14-2.09,0.42c-0.63,0.28-1.17,0.66-1.62,1.14
	c-0.45,0.48-0.8,1.03-1.05,1.66c-0.25,0.63-0.37,1.29-0.37,1.98c0,0.7,0.12,1.36,0.37,1.99c0.24,0.63,0.59,1.17,1.04,1.65
	c0.45,0.47,0.99,0.85,1.61,1.12c0.63,0.28,1.32,0.42,2.09,0.42c0.76,0,1.46-0.14,2.09-0.42c0.63-0.28,1.17-0.66,1.62-1.14
	c0.45-0.48,0.8-1.03,1.05-1.66C138.53,68.47,138.66,67.81,138.66,67.11L138.66,67.11z M137.48,67.14c0,0.57-0.1,1.11-0.29,1.61
	c-0.2,0.5-0.47,0.94-0.81,1.31c-0.34,0.37-0.76,0.67-1.24,0.88c-0.48,0.22-1.01,0.32-1.58,0.32c-0.57,0-1.1-0.11-1.58-0.33
	c-0.48-0.22-0.9-0.52-1.25-0.89c-0.35-0.37-0.63-0.81-0.82-1.32c-0.2-0.51-0.29-1.05-0.29-1.62c0-0.57,0.1-1.11,0.29-1.61
	c0.2-0.5,0.47-0.94,0.81-1.31c0.34-0.37,0.76-0.67,1.24-0.88c0.48-0.22,1.01-0.32,1.58-0.32c0.57,0,1.1,0.11,1.58,0.33
	c0.48,0.22,0.9,0.52,1.25,0.89c0.35,0.37,0.63,0.81,0.82,1.32C137.39,66.03,137.48,66.57,137.48,67.14L137.48,67.14z M153.16,62.11
	h-1.13v5.83c0,1.1-0.27,1.93-0.82,2.48c-0.54,0.55-1.28,0.83-2.21,0.83c-0.97,0-1.72-0.29-2.26-0.87c-0.54-0.58-0.81-1.42-0.81-2.51
	v-5.76h-1.13v5.83c0,0.71,0.1,1.33,0.3,1.88c0.2,0.54,0.48,1,0.85,1.37c0.37,0.37,0.81,0.64,1.32,0.83c0.51,0.19,1.08,0.28,1.7,0.28
	c0.63,0,1.2-0.09,1.71-0.28c0.51-0.19,0.95-0.47,1.32-0.84c0.37-0.37,0.65-0.84,0.85-1.39c0.2-0.55,0.3-1.2,0.3-1.93V62.11
	L153.16,62.11z M167.26,65.3c0-0.5-0.09-0.94-0.26-1.34c-0.18-0.4-0.43-0.73-0.76-1c-0.33-0.27-0.73-0.48-1.19-0.63
	c-0.46-0.15-0.98-0.22-1.54-0.22h-3.75v10.03h1.13V68.6h2.44c0.53,0,1.04-0.07,1.52-0.21c0.48-0.14,0.9-0.35,1.25-0.62
	c0.36-0.28,0.64-0.62,0.85-1.03C167.16,66.33,167.26,65.85,167.26,65.3L167.26,65.3z M166.13,65.35c0,0.33-0.06,0.64-0.19,0.91
	c-0.13,0.27-0.32,0.51-0.56,0.7c-0.24,0.2-0.53,0.35-0.88,0.45c-0.34,0.1-0.72,0.16-1.13,0.16h-2.49v-4.41h2.54
	c0.81,0,1.47,0.18,1.96,0.55C165.88,64.07,166.13,64.62,166.13,65.35L166.13,65.35z"/>
</svg>
