<?xml version="1.0" encoding="UTF-8"?>
<svg width="129px" height="43px" viewBox="0 0 129 43" version="1.1" xmlns="http://www.w3.org/2000/svg" xmlns:xlink="http://www.w3.org/1999/xlink">
    <!-- Generator: Sketch 53 (72520) - https://sketchapp.com -->
    <title>Group 2</title>
    <desc>Created with Sketch.</desc>
    <g id="Page-1" stroke="none" stroke-width="1" fill="none" fill-rule="evenodd">
        <g id="Artboard" transform="translate(-350.000000, -92.000000)">
            <g id="KUHN-Small-Law-Group-AI" transform="translate(81.000000, 92.000000)">
                <g id="Group-2" transform="translate(269.000000, 0.000000)">
                    <polygon id="Path" fill="#010005" points="12.2 13.1 25.1 0 20.7 0 12 9 1.24344979e-14 20.6 1.24344979e-14 30 3.4 30 3.4 22 9.8 15.5 21.4 30 25.7 30"></polygon>
                    <path d="M57.5,5.32907052e-15 L54.1,5.32907052e-15 L54.1,17.5 C54.1,20.8 53.3,23.3 51.7,24.9 C50.1,26.6 47.9,27.4 45.1,27.4 C42.2,27.4 39.9,26.5 38.3,24.8 C36.7,23.1 35.9,20.5 35.9,17.3 L35.9,5.32907052e-15 L32.4,5.32907052e-15 L32.4,17.5 C32.4,19.6 32.7,21.5 33.3,23.1 C33.9,24.7 34.8,26.1 35.9,27.2 C37,28.3 38.3,29.1 39.9,29.7 C41.4,30.3 43.1,30.5 45,30.5 C46.9,30.5 48.6,30.2 50.1,29.7 C51.6,29.1 53,28.3 54.1,27.2 C55.2,26.1 56.1,24.7 56.7,23 C57.3,21.3 57.6,19.4 57.6,17.2 L57.6,5.32907052e-15 L57.5,5.32907052e-15 Z" id="Path" fill="#010005"></path>
                    <polygon id="Path" fill="#010005" points="88.8 16.5 88.8 30 92.2 30 92.2 0 88.8 0 88.8 13.3 71.5 13.3 71.5 0 68.1 0 68.1 30 71.5 30 71.5 16.5"></polygon>
                    <polygon id="Path" fill="#010005" points="125.5 24.1 106.5 0 103.3 0 103.3 30 106.6 30 106.6 5.4 126.1 30 128.8 30 128.8 0 125.5 0"></polygon>
                    <rect id="Rectangle" fill="#E6340D" x="-1.13242749e-14" y="2.66453526e-15" width="3.4" height="4.4"></rect>
                    <path d="M28.7,42.6 L32.8,42.6 L32.8,42 L29.4,42 L29.4,36.6 L28.7,36.6 L28.7,42.6 L28.7,42.6 Z M39.3,36.5 L38.7,36.5 L36,42.6 L36.7,42.6 L37.4,41 L40.7,41 L41.4,42.6 L42.1,42.6 L39.3,36.5 L39.3,36.5 Z M40.3,40.4 L37.6,40.4 L39,37.3 L40.3,40.4 L40.3,40.4 Z M46.7,41.6 L45,36.6 L44.3,36.6 L46.4,42.7 L47,42.7 L48.7,37.8 L50.3,42.7 L50.9,42.7 L53,36.6 L52.3,36.6 L50.6,41.6 L49,36.6 L48.4,36.6 L46.7,41.6 L46.7,41.6 Z M64.6,41.8 L64.6,39.4 L62.1,39.4 L62.1,40 L63.9,40 L63.9,41.5 C63.7,41.7 63.4,41.8 63.1,41.9 C62.8,42 62.5,42.1 62.1,42.1 C61.7,42.1 61.4,42 61.1,41.9 C60.8,41.8 60.6,41.6 60.4,41.4 C60.2,41.2 60,40.9 59.9,40.6 C59.8,40.3 59.7,40 59.7,39.6 C59.7,39.3 59.8,38.9 59.9,38.6 C60,38.3 60.2,38 60.4,37.8 C60.6,37.6 60.8,37.4 61.1,37.3 C61.4,37.2 61.7,37.1 62,37.1 C62.2,37.1 62.4,37.1 62.6,37.2 C62.8,37.2 62.9,37.3 63.1,37.3 C63.2,37.4 63.4,37.4 63.5,37.5 C63.6,37.6 63.7,37.7 63.9,37.8 L64.3,37.3 C64.2,37.2 64,37.1 63.8,37 C63.6,36.9 63.5,36.8 63.3,36.7 C63.1,36.6 62.9,36.6 62.7,36.5 C62.5,36.5 62.3,36.4 62,36.4 C61.5,36.4 61.1,36.5 60.8,36.7 C60.4,36.9 60.1,37.1 59.9,37.4 C59.6,37.7 59.4,38 59.3,38.4 C59.2,38.8 59.1,39.2 59.1,39.6 C59.1,40 59.2,40.4 59.3,40.8 C59.4,41.2 59.6,41.5 59.9,41.8 C60.2,42.1 60.5,42.3 60.9,42.5 C61.3,42.7 61.7,42.7 62.2,42.7 C62.7,42.7 63.2,42.6 63.6,42.4 C64,42.3 64.3,42 64.6,41.8 L64.6,41.8 Z M73.5,42.6 L71.7,40.1 C71.9,40.1 72.2,40 72.4,39.9 C72.6,39.8 72.8,39.7 72.9,39.5 C73,39.4 73.2,39.2 73.2,39 C73.3,38.8 73.3,38.6 73.3,38.3 C73.3,38 73.2,37.8 73.1,37.6 C73,37.4 72.9,37.2 72.7,37 C72.5,36.8 72.3,36.7 72,36.6 C71.7,36.5 71.4,36.5 71.1,36.5 L68.5,36.5 L68.5,42.5 L69.2,42.5 L69.2,40.2 L70.9,40.2 L72.6,42.5 L73.5,42.5 L73.5,42.6 Z M72.6,38.4 C72.6,38.6 72.6,38.8 72.5,38.9 C72.4,39.1 72.3,39.2 72.2,39.3 C72.1,39.4 71.9,39.5 71.7,39.5 C71.5,39.6 71.3,39.6 71.1,39.6 L69.2,39.6 L69.2,37.2 L71.1,37.2 C71.6,37.2 72,37.3 72.2,37.5 C72.4,37.7 72.6,38 72.6,38.4 L72.6,38.4 Z M82.9,39.6 C82.9,39.2 82.8,38.8 82.7,38.4 C82.6,38 82.3,37.7 82.1,37.4 C81.8,37.1 81.5,36.9 81.1,36.7 C80.7,36.5 80.3,36.5 79.8,36.5 C79.3,36.5 78.9,36.6 78.5,36.8 C78.1,37 77.8,37.2 77.5,37.5 C77.2,37.8 77,38.1 76.9,38.5 C76.8,38.9 76.7,39.3 76.7,39.7 C76.7,40.1 76.8,40.5 76.9,40.9 C77,41.3 77.3,41.6 77.5,41.9 C77.8,42.2 78.1,42.4 78.5,42.6 C78.9,42.8 79.3,42.8 79.8,42.8 C80.3,42.8 80.7,42.7 81.1,42.5 C81.5,42.3 81.8,42.1 82.1,41.8 C82.4,41.5 82.6,41.2 82.7,40.8 C82.8,40.4 82.9,40 82.9,39.6 L82.9,39.6 Z M82.2,39.6 C82.2,39.9 82.1,40.3 82,40.6 C81.9,40.9 81.7,41.2 81.5,41.4 C81.3,41.6 81,41.8 80.8,41.9 C80.5,42 80.2,42.1 79.8,42.1 C79.5,42.1 79.1,42 78.9,41.9 C78.6,41.8 78.4,41.6 78.1,41.4 C77.9,41.2 77.7,40.9 77.6,40.6 C77.5,40.3 77.4,40 77.4,39.6 C77.4,39.3 77.5,38.9 77.6,38.6 C77.7,38.3 77.9,38 78.1,37.8 C78.3,37.6 78.6,37.4 78.8,37.3 C79.1,37.2 79.4,37.1 79.7,37.1 C80,37.1 80.4,37.2 80.6,37.3 C80.9,37.4 81.1,37.6 81.4,37.8 C81.6,38 81.8,38.3 81.9,38.6 C82.2,38.9 82.2,39.3 82.2,39.6 L82.2,39.6 Z M91.6,36.6 L90.9,36.6 L90.9,40.1 C90.9,40.8 90.7,41.3 90.4,41.6 C90.1,41.9 89.6,42.1 89.1,42.1 C88.5,42.1 88.1,41.9 87.7,41.6 C87.4,41.3 87.2,40.7 87.2,40.1 L87.2,36.6 L86.5,36.6 L86.5,40.1 C86.5,40.5 86.6,40.9 86.7,41.2 C86.8,41.5 87,41.8 87.2,42 C87.4,42.2 87.7,42.4 88,42.5 C88.3,42.6 88.6,42.7 89,42.7 C89.4,42.7 89.7,42.6 90,42.5 C90.3,42.4 90.6,42.2 90.8,42 C91,41.8 91.2,41.5 91.3,41.2 C91.4,40.9 91.5,40.5 91.5,40 L91.5,36.6 L91.6,36.6 Z M100.1,38.5 C100.1,38.2 100,37.9 99.9,37.7 C99.8,37.5 99.6,37.3 99.4,37.1 C99.2,36.9 99,36.8 98.7,36.7 C98.4,36.6 98.1,36.6 97.8,36.6 L95.5,36.6 L95.5,42.6 L96.2,42.6 L96.2,40.5 L97.7,40.5 C98,40.5 98.3,40.5 98.6,40.4 C98.9,40.3 99.1,40.2 99.4,40 C99.6,39.8 99.8,39.6 99.9,39.4 C100,39.1 100.1,38.8 100.1,38.5 L100.1,38.5 Z M99.4,38.5 C99.4,38.7 99.4,38.9 99.3,39 C99.2,39.2 99.1,39.3 99,39.4 C98.9,39.5 98.7,39.6 98.5,39.7 C98.3,39.8 98.1,39.8 97.8,39.8 L96.3,39.8 L96.3,37.2 L97.8,37.2 C98.3,37.2 98.7,37.3 99,37.5 C99.2,37.8 99.4,38.1 99.4,38.5 Z" id="Shape" fill="#010005"></path>
                </g>
            </g>
        </g>
    </g>
</svg>